<svg data-sequence-spacing-scale="1.16" xmlns="http://www.w3.org/2000/svg" width="1700" height="2296.8" viewBox="0 0 1700 2296.8" role="img" aria-labelledby="title desc">
  <title id="t t l">UserContext Current User Sequence</title>
  <desc id="s c">Sequence diagram rebuilt from UserContext source, core README usage, and UserContext tests.</desc>
  <defs>
    <marker id="seqArrow-4F83BF" viewBox="0 0 10 10" markerWidth="16" markerHeight="16" refX="9" refY="5" orient="auto" markerUnits="userSpaceOnUse"><path d="M 0 0 L 5.4 3.132 Q 10 5.8 5.4 8.468 L 0 11.6" fill="#4f83bf" style="stroke-dasharray:none!important" stroke-dasharray="none" stroke="#4f83bf" /></marker>
    <marker id="seqArrow-755BC6" viewBox="0 0 10 10" markerWidth="16" markerHeight="16" refX="9" refY="5" orient="auto" markerUnits="userSpaceOnUse"><path d="M 0 0 L 5.4 3.132 Q 10 5.8 5.4 8.468 L 0 11.6" fill="#755bc6" style="stroke-dasharray:none!important" stroke-dasharray="none" stroke="#755bc6" /></marker>
    <marker id="seqArrow-2E8F89" viewBox="0 0 10 10" markerWidth="16" markerHeight="16" refX="9" refY="5" orient="auto" markerUnits="userSpaceOnUse"><path d="M 0 0 L 5.4 3.132 Q 10 5.8 5.4 8.468 L 0 11.6" fill="#2e8f89" style="stroke-dasharray:none!important" stroke-dasharray="none" stroke="#2e8f89" /></marker>
    <marker id="seqArrow-3E9868" viewBox="0 0 10 10" markerWidth="16" markerHeight="16" refX="9" refY="5" orient="auto" markerUnits="userSpaceOnUse"><path d="M 0 0 L 5.4 3.132 Q 10 5.8 5.4 8.468 L 0 11.6" fill="#3e9868" style="stroke-dasharray:none!important" stroke-dasharray="none" stroke="#3e9868" /></marker>
    <marker id="seqArrow-B9851B" viewBox="0 0 10 10" markerWidth="16" markerHeight="16" refX="9" refY="5" orient="auto" markerUnits="userSpaceOnUse"><path d="M 0 0 L 5.4 3.132 Q 10 5.8 5.4 8.468 L 0 11.6" fill="#b9851b" style="stroke-dasharray:none!important" stroke-dasharray="none" stroke="#b9851b" /></marker>
    <marker id="seqArrow-C94D68" viewBox="0 0 10 10" markerWidth="16" markerHeight="16" refX="9" refY="5" orient="auto" markerUnits="userSpaceOnUse"><path d="M 0 0 L 5.4 3.132 Q 10 5.8 5.4 8.468 L 0 11.6" fill="#c94d68" style="stroke-dasharray:none!important" stroke-dasharray="none" stroke="#c94d68" /></marker>
    <marker id="seqArrow-758297" viewBox="0 0 10 10" markerWidth="16" markerHeight="16" refX="9" refY="5" orient="auto" markerUnits="userSpaceOnUse"><path d="M 0 0 L 5.4 3.132 Q 10 5.8 5.4 8.468 L 0 11.6" fill="#758297" style="stroke-dasharray:none!important" stroke-dasharray="none" stroke="#758297" /></marker>
    <filter id="s h a" x="-8%" y="-8%" width="116%" height="116%"><feDropShadow dx="0" dy="6" stdDeviation="7" flood-color="#203040" flood-opacity="0.10"/></filter>
    <style>
      .canvas{fill:#F7FAFC}.frame{fill:#FFFFFF;stroke:#D7E2EC;stroke-width:2.6;filter:url(#shadow)}
      .title{font-family:"Architects Daughter";font-size:44px;fill:#22344A;font-weight:400}.subtitle{font-family:"Comic Mono";font-size:16px;fill:#536476;font-weight:400}
      .actor{filter:url(#shadow);stroke-width:2}.actorTitle{font-family:"Architects Daughter";font-size:23px;fill:#22344A;font-weight:400}
      .actorNote{font-family:"Comic Mono";font-size:13px;fill:#42556B;font-weight:400}.small{font-family:"Comic Mono";font-size:12px;fill:#627184;font-weight:400}
      .activation{fill:#E9F7EF;stroke:#66A783;stroke-width:1.2;opacity:.72}.seq{fill:none;stroke-width:3;stroke-linecap:round}.ret{fill:none;stroke-width:2.7;stroke-linecap:round;stroke-linejoin:round;stroke-dasharray:8 7}
      .lifeline{stroke:#A7B4C3;stroke-width:1.8;stroke-dasharray:8 8}.pill{fill:#FFFFFF;stroke:#D6E3EF;stroke-width:1.4}
      .alt{fill:#FFFFFF;fill-opacity:0.12;stroke:#D6A441;stroke-width:1.8;stroke-dasharray:8 8}.note{fill:#FFFFFF;stroke:#D6E3EF;stroke-width:1.4}
    </style>
  </defs>
  <rect class="canvas" width="1700" height="2296.8"/>
  <rect class="frame" x="32" y="32.48" width="1636" height="2231.84" rx="28"/>
  <text class="title" x="66" y="95.12">UserContext Current User Sequence</text>
  <text class="subtitle" x="70" y="134.56">ScopedValue has lookup priority, ThreadLocal covers coroutine/general thread scopes, and both paths restore the previous value.</text>
<g id="a t c a t q s t">
  <rect class="actor" x="96" y="191.4" width="230" height="88.16" rx="10" fill="#E8F3FF" stroke="#5B8DEF"/>
  <text class="actorTitle" x="211" y="228.52" text-anchor="middle">Request or</text>
  <text class="actorTitle" x="211" y="255.2" text-anchor="middle">repository block</text>
  <line class="lifeline" x1="211" y1="279.56" x2="211" y2="2187.76"/>
</g>
<g id="a t c a t c t t">
  <rect class="actor" x="415.5" y="191.4" width="230" height="88.16" rx="10" fill="#F1ECFF" stroke="#8A72D6"/>
  <text class="actorTitle" x="530.5" y="243.6" text-anchor="middle">UserContext</text>
  <line class="lifeline" x1="530.5" y1="279.56" x2="530.5" y2="2187.76"/>
</g>
<g id="a t c a t s c">
  <rect class="actor" x="735" y="191.4" width="230" height="88.16" rx="10" fill="#EAF7EF" stroke="#58A978"/>
  <text class="actorTitle" x="850" y="243.6" text-anchor="middle">ScopedValue</text>
  <line class="lifeline" x1="850" y1="279.56" x2="850" y2="2187.76"/>
</g>
<g id="a t c a t t h a L c a l">
  <rect class="actor" x="1054.5" y="191.4" width="230" height="88.16" rx="10" fill="#E9F7F6" stroke="#45A7A1"/>
  <text class="actorTitle" x="1169.5" y="228.52" text-anchor="middle">Inheritable</text>
  <text class="actorTitle" x="1169.5" y="255.2" text-anchor="middle">ThreadLocal</text>
  <line class="lifeline" x1="1169.5" y1="279.56" x2="1169.5" y2="2187.76"/>
</g>
<g id="a t c a t a t">
  <rect class="actor" x="1374" y="191.4" width="230" height="88.16" rx="10" fill="#FDECEF" stroke="#DC6B82"/>
  <text class="actorTitle" x="1489" y="228.52" text-anchor="middle">Auditable table</text>
  <text class="actorTitle" x="1489" y="255.2" text-anchor="middle">default</text>
  <line class="lifeline" x1="1489" y1="279.56" x2="1489" y2="2187.76"/>
  <rect class="activation" x="204" y="381.64" width="14" height="603.2" rx="6"/>
  <rect class="activation" x="523.5" y="381.64" width="14" height="603.2" rx="6"/>
  <rect class="activation" x="843" y="381.64" width="14" height="603.2" rx="6"/>
  <rect class="activation" x="1162.5" y="381.64" width="14" height="603.2" rx="6"/>
  <rect class="activation" x="1482" y="381.64" width="14" height="603.2" rx="6"/>
</g>
<g>
  <rect class="alt" x="74" y="338.72" width="1552" height="55.68" rx="15"/>
  <rect class="pill" x="178.75" y="331.76" width="384" height="34.8" rx="8"/>
  <text class="actorNote" x="370.75" y="350.32" text-anchor="middle" dominant-baseline="middle">Virtual thread / structured concurrency path</text>
</g>
<g id="m 2">
  <rect class="pill" x="228.35" y="408.32" width="284.8" height="48.72" rx="7"/>
  <circle cx="247.35" cy="432.68" r="12" fill="#4F83BF"/>
  <text class="actorNote" x="247.35" y="433.84" text-anchor="middle" dominant-baseline="middle" style="fill:#fff;font-size:12px">2</text>
  <text class="actorNote" x="388.75" y="423.4" text-anchor="middle" dominant-baseline="middle">withUser(&quot;admin&quot;) enters</text>
  <text class="actorNote" x="388.75" y="440.8" text-anchor="middle" dominant-baseline="middle">block</text>
  <path class="seq" d="M 211 477.92 L 530.5 477.92" stroke="#4F83BF" marker-end="url(#seqArrow-4F83BF)"/>
</g>
<g id="m 3">
  <rect class="pill" x="653.6" y="517.36" width="392.8" height="34.8" rx="7"/>
  <circle cx="672.6" cy="534.76" r="12" fill="#2E8F89"/>
  <text class="actorNote" x="672.6" y="535.92" text-anchor="middle" dominant-baseline="middle" style="fill:#fff;font-size:12px">3</text>
  <text class="actorNote" x="868" y="535.92" text-anchor="middle" dominant-baseline="middle">save previous ThreadLocal and set admin</text>
  <path class="seq" d="M 530.5 573.04 L 1169.5 573.04" stroke="#2E8F89" marker-end="url(#seqArrow-2E8F89)"/>
</g>
<g id="m 4">
  <rect class="pill" x="545.5" y="612.48" width="289.5" height="34.8" rx="7"/>
  <circle cx="564.5" cy="629.88" r="12" fill="#755BC6"/>
  <text class="actorNote" x="564.5" y="631.04" text-anchor="middle" dominant-baseline="middle" style="fill:#fff;font-size:12px">4</text>
  <text class="actorNote" x="708.25" y="631.04" text-anchor="middle" dominant-baseline="middle">ScopedValue.where(...).call(block)</text>
  <path class="seq" d="M 530.5 668.16 L 850 668.16" stroke="#755BC6" marker-end="url(#seqArrow-755BC6)"/>
</g>
<g id="m 5">
  <rect class="pill" x="671.6" y="707.6" width="356.8" height="34.8" rx="7"/>
  <circle cx="690.6" cy="725" r="12" fill="#C94D68"/>
  <text class="actorNote" x="690.6" y="726.16" text-anchor="middle" dominant-baseline="middle" style="fill:#fff;font-size:12px">5</text>
  <text class="actorNote" x="868" y="726.16" text-anchor="middle" dominant-baseline="middle">insert/update reads audit username</text>
  <path class="seq" d="M 211 763.28 L 1489 763.28" stroke="#C94D68" marker-end="url(#seqArrow-C94D68)"/>
</g>
<g id="m 6">
  <rect class="pill" x="887.25" y="802.72" width="245" height="34.8" rx="7"/>
  <circle cx="906.25" cy="820.12" r="12" fill="#C94D68"/>
  <text class="actorNote" x="906.25" y="821.28" text-anchor="middle" dominant-baseline="middle" style="fill:#fff;font-size:12px">6</text>
  <text class="actorNote" x="1027.75" y="821.28" text-anchor="middle" dominant-baseline="middle">getCurrentUser()</text>
  <path class="seq" d="M 1489 858.4 L 530.5 858.4" stroke="#C94D68" marker-end="url(#seqArrow-C94D68)"/>
</g>
<g id="m 7">
  <rect class="pill" x="555.05" y="883.92" width="270.4" height="48.72" rx="7"/>
  <circle cx="574.05" cy="908.28" r="12" fill="#755BC6"/>
  <text class="actorNote" x="574.05" y="909.44" text-anchor="middle" dominant-baseline="middle" style="fill:#fff;font-size:12px">7</text>
  <text class="actorNote" x="708.25" y="899" text-anchor="middle" dominant-baseline="middle">read bound ScopedValue</text>
  <text class="actorNote" x="708.25" y="916.4" text-anchor="middle" dominant-baseline="middle">first</text>
  <path class="seq" d="M 530.5 953.52 L 850 953.52" stroke="#755BC6" marker-end="url(#seqArrow-755BC6)"/>
</g>
<g id="m 8">
  <rect class="pill" x="567.75" y="992.96" width="245" height="34.8" rx="7"/>
  <circle cx="586.75" cy="1010.36" r="12" fill="#755BC6"/>
  <text class="actorNote" x="586.75" y="1011.52" text-anchor="middle" dominant-baseline="middle" style="fill:#fff;font-size:12px">8</text>
  <text class="actorNote" x="708.25" y="1011.52" text-anchor="middle" dominant-baseline="middle">admin</text>
  <path class="ret" d="M 850 1048.64 L 530.5 1048.64" stroke="#755BC6"/>
<polygon points="530.5,1048.64 546.5,1040.64 546.5,1056.64" fill="#755BC6" stroke="#755BC6" stroke-width="1" stroke-linejoin="round" stroke-dasharray="none" style="stroke-dasharray:none!important" data-direct-solid-head="t"/>
</g>
<g id="m 9">
  <rect class="pill" x="660.8" y="1088.08" width="378.40000000000003" height="34.8" rx="7"/>
  <circle cx="679.8" cy="1105.48" r="12" fill="#3E9868"/>
  <text class="actorNote" x="679.8" y="1106.64" text-anchor="middle" dominant-baseline="middle" style="fill:#fff;font-size:12px">9</text>
  <text class="actorNote" x="868" y="1106.64" text-anchor="middle" dominant-baseline="middle">finally restores previous ThreadLocal</text>
  <path class="seq" d="M 530.5 1143.76 L 1169.5 1143.76" stroke="#3E9868" marker-end="url(#seqArrow-3E9868)"/>
</g>
<g>
  <rect class="alt" x="74" y="1194.8" width="1552" height="55.68" rx="15"/>
  <rect class="pill" x="227.5" y="1187.84" width="286.5" height="34.8" rx="8"/>
  <text class="actorNote" x="370.75" y="1206.4" text-anchor="middle" dominant-baseline="middle">Coroutine / general thread path</text>
</g>
<g id="m 11">
  <rect class="pill" x="226" y="1264.4" width="289.5" height="48.72" rx="7"/>
  <circle cx="245" cy="1288.76" r="12" fill="#4F83BF"/>
  <text class="actorNote" x="245" y="1289.92" text-anchor="middle" dominant-baseline="middle" style="fill:#fff;font-size:12px">11</text>
  <text class="actorNote" x="388.75" y="1279.48" text-anchor="middle" dominant-baseline="middle">withThreadLocalUser(&quot;admin&quot;)</text>
  <text class="actorNote" x="388.75" y="1296.88" text-anchor="middle" dominant-baseline="middle">enters block</text>
  <path class="seq" d="M 211 1334 L 530.5 1334" stroke="#4F83BF" marker-end="url(#seqArrow-4F83BF)"/>
</g>
<g id="m 12">
  <rect class="pill" x="722" y="1373.44" width="256" height="34.8" rx="7"/>
  <circle cx="741" cy="1390.84" r="12" fill="#2E8F89"/>
  <text class="actorNote" x="741" y="1392" text-anchor="middle" dominant-baseline="middle" style="fill:#fff;font-size:12px">12</text>
  <text class="actorNote" x="868" y="1392" text-anchor="middle" dominant-baseline="middle">set ThreadLocal only</text>
  <path class="seq" d="M 530.5 1429.12 L 1169.5 1429.12" stroke="#2E8F89" marker-end="url(#seqArrow-2E8F89)"/>
</g>
<g id="m 13">
  <rect class="pill" x="887.25" y="1468.56" width="245" height="34.8" rx="7"/>
  <circle cx="906.25" cy="1485.96" r="12" fill="#C94D68"/>
  <text class="actorNote" x="906.25" y="1487.12" text-anchor="middle" dominant-baseline="middle" style="fill:#fff;font-size:12px">13</text>
  <text class="actorNote" x="1027.75" y="1487.12" text-anchor="middle" dominant-baseline="middle">getCurrentUser()</text>
  <path class="seq" d="M 1489 1524.24 L 530.5 1524.24" stroke="#C94D68" marker-end="url(#seqArrow-C94D68)"/>
</g>
<g id="m 14">
  <rect class="pill" x="624.8" y="1563.68" width="450.40000000000003" height="34.8" rx="7"/>
  <circle cx="643.8" cy="1581.08" r="12" fill="#2E8F89"/>
  <text class="actorNote" x="643.8" y="1582.24" text-anchor="middle" dominant-baseline="middle" style="fill:#fff;font-size:12px">14</text>
  <text class="actorNote" x="868" y="1582.24" text-anchor="middle" dominant-baseline="middle">fallback to ThreadLocal when ScopedValue absent</text>
  <path class="seq" d="M 530.5 1619.36 L 1169.5 1619.36" stroke="#2E8F89" marker-end="url(#seqArrow-2E8F89)"/>
</g>
<g id="m 15">
  <rect class="pill" x="727.5" y="1658.8" width="245" height="34.8" rx="7"/>
  <circle cx="746.5" cy="1676.2" r="12" fill="#2E8F89"/>
  <text class="actorNote" x="746.5" y="1677.36" text-anchor="middle" dominant-baseline="middle" style="fill:#fff;font-size:12px">15</text>
  <text class="actorNote" x="868" y="1677.36" text-anchor="middle" dominant-baseline="middle">admin</text>
  <path class="ret" d="M 1169.5 1714.48 L 530.5 1714.48" stroke="#2E8F89"/>
<polygon points="530.5,1714.48 546.5,1706.48 546.5,1722.48" fill="#2E8F89" stroke="#2E8F89" stroke-width="1" stroke-linejoin="round" stroke-dasharray="none" style="stroke-dasharray:none!important" data-direct-solid-head="t"/>
</g>
<g id="m 16">
  <rect class="pill" x="660.8" y="1753.92" width="378.40000000000003" height="34.8" rx="7"/>
  <circle cx="679.8" cy="1771.32" r="12" fill="#3E9868"/>
  <text class="actorNote" x="679.8" y="1772.48" text-anchor="middle" dominant-baseline="middle" style="fill:#fff;font-size:12px">16</text>
  <text class="actorNote" x="868" y="1772.48" text-anchor="middle" dominant-baseline="middle">finally restore or remove ThreadLocal</text>
  <path class="seq" d="M 530.5 1809.6 L 1169.5 1809.6" stroke="#3E9868" marker-end="url(#seqArrow-3E9868)"/>
</g>
<g>
  <rect class="alt" x="74" y="1860.64" width="1552" height="55.68" rx="15"/>
  <rect class="pill" x="275.75" y="1853.68" width="190" height="34.8" rx="8"/>
  <text class="actorNote" x="370.75" y="1872.24" text-anchor="middle" dominant-baseline="middle">No active context</text>
</g>
<g id="m 18">
  <rect class="pill" x="887.25" y="1944.16" width="245" height="34.8" rx="7"/>
  <circle cx="906.25" cy="1961.56" r="12" fill="#C94D68"/>
  <text class="actorNote" x="906.25" y="1962.72" text-anchor="middle" dominant-baseline="middle" style="fill:#fff;font-size:12px">18</text>
  <text class="actorNote" x="1027.75" y="1962.72" text-anchor="middle" dominant-baseline="middle">getCurrentUser()</text>
  <path class="seq" d="M 1489 1999.84 L 530.5 1999.84" stroke="#C94D68" marker-end="url(#seqArrow-C94D68)"/>
</g>
<g id="m 19">
  <rect class="pill" x="228.35" y="2025.36" width="284.8" height="48.72" rx="7"/>
  <circle cx="247.35" cy="2049.72" r="12" fill="#B9851B"/>
  <text class="actorNote" x="247.35" y="2050.88" text-anchor="middle" dominant-baseline="middle" style="fill:#fff;font-size:12px">19</text>
  <text class="actorNote" x="388.75" y="2040.44" text-anchor="middle" dominant-baseline="middle">return default username:</text>
  <text class="actorNote" x="388.75" y="2057.84" text-anchor="middle" dominant-baseline="middle">system</text>
  <path class="ret" d="M 530.5 2094.96 L 211 2094.96" stroke="#B9851B"/>
<polygon points="211,2094.96 227,2086.96 227,2102.96" fill="#B9851B" stroke="#B9851B" stroke-width="1" stroke-linejoin="round" stroke-dasharray="none" style="stroke-dasharray:none!important" data-direct-solid-head="t"/>
</g>
<g data-footer="reader-contract"><rect class="note" x="110" y="2159.92" width="1480" height="55.68" rx="12"/><text class="small" x="850" y="2179.64" text-anchor="middle" dominant-baseline="middle">Use withUser for virtual-thread scopes; use withThreadLocalUser for coroutine or general-thread scopes.</text><text class="small" x="850" y="2199.36" text-anchor="middle" dominant-baseline="middle">getCurrentUser resolves ScopedValue first, then ThreadLocal, then the default system user.</text></g>
</svg>
